<svg enable-background="new 0 0 512 512" viewBox="0 0 512 512" xmlns="http://www.w3.org/2000/svg"><path d="m349.6 96.1h-177.6v-41h-73v55h-25.3c-2.6 0-5 1.5-6.1 3.8s-.9 5.1.7 7.2l58.7 75.4v116.2l-39.1 19.8v111.8h39.1v61.7h318.2v-314.9zm78.6 392.9h-284.2v-44.7h176.8l58.9-55.9-58.9-55.9h-176.8v-219.4h197.6v86.3h86.6zm-264.9-73v-55h21.1c6.1 0 10.8 1.6 14.3 4.7s5.2 7.3 5.2 12.4c0 5.2-1.7 9.3-5.2 12.4-3.4 3.1-8.2 4.7-14.3 4.7h-11.9v20.8zm51.6 0v-55h18.2c7 0 12.6 2.2 17 6.5 4.4 4.4 6.6 10 6.6 16.8v8.3c0 6.9-2.2 12.5-6.6 16.8s-10 6.5-17 6.5h-18.2zm85.5-30.9v7.4h-22.2v23.5h-9.2v-55h35.2v7.4h-26v16.8h22.2z"/><path d="m99 36.4h73v9.4h-73z"/><path d="m172 12.8c0-3.8-3-6.8-6.8-6.8h-59.4c-3.8 0-6.8 3-6.8 6.8v14.3h73z"/><path d="m176.1 159.6h132.6v21.3h-132.6z"/><path d="m176.1 213.9h132.6v21.3h-132.6z"/><path d="m176.1 268.2h231.7v21.3h-231.7z"/><path d="m233.1 368.3h-9v40.3h9c4.4 0 7.9-1.5 10.5-4.5s3.9-6.8 3.9-11.5v-8.4c0-4.6-1.3-8.4-3.9-11.4s-6.1-4.5-10.5-4.5z"/><path d="m192.1 385c1.7-1.8 2.6-4.1 2.6-6.9s-.9-5.1-2.6-7-4.3-2.8-7.7-2.8h-11.9v19.4h11.9c3.4.1 6-.9 7.7-2.7z"/></svg>