<svg clip-rule="evenodd" stroke-linecap="round" stroke-linejoin="round" stroke-miterlimit="10" viewBox="0 0 415 192" xmlns="http://www.w3.org/2000/svg"><g fill="#144985"><path d="m213.859 20h-11.808v149.404h11.808zm175.649 0-67.308 38.861v13.583l67.308-38.86zm-67.308 148.721h11.764v-72.748h55.544v-11.765h-55.544-11.764v11.765zm-96.413.001v-12.328l58.378-29.588-58.378-29.588v-13.01l72.559 36.776h-.001v11.644h.001l-72.559 36.776zm-47.591.682h-11.808l-24.759-68.792-24.759 68.792h-11.808l30.663-85.196h11.808zm-158.196 0h11.807l24.76-68.792 24.759 68.792h11.808l-30.663-85.196h-11.808z"/><path d="m213.859 20h-11.808v149.404h11.808zm175.649 0-67.308 38.861v13.583l67.308-38.86zm-67.308 148.721h11.764v-72.748h55.544v-11.765h-55.544-11.764v11.765zm-96.413.001v-12.328l58.378-29.588-58.378-29.588v-13.01l72.559 36.776h-.001v11.644h.001l-72.559 36.776zm-47.591.682h-11.808l-24.759-68.792-24.759 68.792h-11.808l30.663-85.196h11.808zm-158.196 0h11.807l24.76-68.792 24.759 68.792h11.808l-30.663-85.196h-11.808z"/></g></svg>